<svg width="187" height="31" viewBox="0 0 187 31" fill="none" xmlns="http://www.w3.org/2000/svg">
<path d="M3.95933 30.5217C2.70533 30.1477 1.85833 29.7847 1.41833 29.4327C0.978331 29.1027 0.758331 28.6407 0.758331 28.0467C0.758331 27.3867 0.912331 26.4627 1.22033 25.2747C1.52833 24.0647 1.92433 22.7227 2.40833 21.2487C2.91433 19.7747 3.48633 18.2347 4.12433 16.6287C4.76233 15.0227 5.41133 13.4827 6.07133 12.0087C6.73133 10.5347 7.36933 9.19267 7.98533 7.98267C8.62333 6.75067 9.18433 5.79367 9.66833 5.11167L9.43733 3.72567C9.74533 3.72567 10.1743 3.80267 10.7243 3.95667C11.2743 4.11067 11.8243 4.29767 12.3743 4.51767C12.9463 4.73767 13.4413 4.96867 13.8593 5.21067C14.2993 5.43067 14.5413 5.61767 14.5853 5.77167C14.4753 6.29967 14.3873 7.10267 14.3213 8.18067C14.2553 9.23667 14.2223 10.3697 14.2223 11.5797C14.2223 13.9777 14.3103 16.3317 14.4863 18.6417C14.6843 20.9297 15.1243 23.2617 15.8063 25.6377C16.1583 23.8777 16.5323 22.1287 16.9283 20.3907C17.3463 18.6307 17.7753 16.9587 18.2153 15.3747C18.6553 13.7687 19.0953 12.2837 19.5353 10.9197C19.9753 9.55567 20.3933 8.36767 20.7893 7.35567C21.2073 6.32167 21.5923 5.51867 21.9443 4.94667C22.2963 4.35267 22.6153 4.03367 22.9013 3.98967C23.1433 4.03367 23.4073 4.13267 23.6933 4.28667C23.9793 4.41867 24.2543 4.58367 24.5183 4.78167C24.7823 4.97967 25.0243 5.19967 25.2443 5.44167C25.4643 5.68367 25.6403 5.92567 25.7723 6.16767C25.0683 6.45367 24.3643 7.12467 23.6603 8.18067C22.9783 9.23667 22.3183 10.5237 21.6803 12.0417C21.0643 13.5377 20.4813 15.1657 19.9313 16.9257C19.4033 18.6857 18.9303 20.4237 18.5123 22.1397C18.1163 23.8337 17.7973 25.4067 17.5553 26.8587C17.3353 28.3107 17.2143 29.4767 17.1923 30.3567C17.1923 30.4007 17.2033 30.4337 17.2253 30.4557C17.1593 30.4777 17.0823 30.4887 16.9943 30.4887C16.9283 30.4887 16.8623 30.4887 16.7963 30.4887C15.7843 30.4887 14.8823 30.3567 14.0903 30.0927C13.3203 29.8507 12.8143 29.4987 12.5723 29.0367C12.1103 27.1887 11.7253 25.4067 11.4173 23.6907C11.1093 21.9747 10.8453 20.2587 10.6253 18.5427C10.4273 16.8267 10.2623 15.0997 10.1303 13.3617C10.0203 11.6017 9.93233 9.76467 9.86633 7.85067C9.44833 8.51067 9.00833 9.37967 8.54633 10.4577C8.08433 11.5137 7.63333 12.6797 7.19333 13.9557C6.75333 15.2317 6.32433 16.5737 5.90633 17.9817C5.51033 19.3897 5.15833 20.7647 4.85033 22.1067C4.54233 23.4487 4.30033 24.7247 4.12433 25.9347C3.94833 27.1227 3.86033 28.1567 3.86033 29.0367C3.86033 29.4987 3.86033 29.8287 3.86033 30.0267C3.88233 30.2247 3.91533 30.3897 3.95933 30.5217ZM77.0518 5.80467C76.0838 7.10267 75.2038 8.53267 74.4118 10.0947C73.6198 11.6567 72.9378 13.2627 72.3658 14.9127C71.8158 16.5407 71.3868 18.1577 71.0788 19.7637C70.7928 21.3477 70.6498 22.8327 70.6498 24.2187C70.6498 25.9347 70.9028 27.1777 71.4088 27.9477C71.9148 28.7177 72.7838 29.1027 74.0158 29.1027C75.4458 29.1027 76.6998 28.6077 77.7778 27.6177C78.8558 26.6057 79.8678 25.2197 80.8138 23.4597C81.4298 22.3157 81.9578 21.0617 82.3978 19.6977C82.8378 18.3337 83.1898 16.9367 83.4538 15.5067C83.7398 14.0547 83.9488 12.6027 84.0808 11.1507C84.2128 9.67667 84.2788 8.26867 84.2788 6.92667C84.2788 6.06867 84.2678 5.44167 84.2458 5.04567C84.2238 4.64967 84.1908 4.33067 84.1468 4.08867C84.2128 4.08867 84.3778 4.11067 84.6418 4.15467C84.9058 4.19867 85.2028 4.25367 85.5328 4.31967C85.8848 4.38567 86.2258 4.47367 86.5558 4.58367C86.9078 4.69367 87.2048 4.81467 87.4468 4.94667C87.3368 6.61867 87.1278 8.34567 86.8198 10.1277C86.5338 11.9097 86.1488 13.6697 85.6648 15.4077C85.1808 17.1457 84.6198 18.8177 83.9818 20.4237C83.3438 22.0297 82.6288 23.4707 81.8368 24.7467C80.6708 26.6387 79.3618 28.1127 77.9098 29.1687C76.4578 30.2467 74.7418 30.7857 72.7618 30.7857C70.7378 30.7857 69.1648 30.1917 68.0428 29.0037C66.9208 27.8377 66.3598 26.0557 66.3598 23.6577C66.3598 22.2717 66.5138 20.7097 66.8218 18.9717C67.1298 17.2117 67.5368 15.4297 68.0428 13.6257C68.5708 11.7997 69.1758 10.0287 69.8578 8.31267C70.5398 6.57467 71.2548 5.02367 72.0028 3.65967C72.3768 3.68167 72.8168 3.75867 73.3228 3.89067C73.8288 4.02267 74.3238 4.19867 74.8078 4.41867C75.2918 4.61667 75.7318 4.84767 76.1278 5.11167C76.5458 5.35367 76.8538 5.58467 77.0518 5.80467ZM151.799 5.77167C151.865 6.14567 151.909 6.40967 151.931 6.56367C151.975 6.69567 151.997 6.88267 151.997 7.12467C151.997 7.85067 151.832 8.53267 151.502 9.17067C151.194 9.78667 150.765 10.2267 150.215 10.4907C149.775 9.89667 149.236 9.39067 148.598 8.97267C147.96 8.53267 147.256 8.18067 146.486 7.91667C145.738 7.63067 144.957 7.42167 144.143 7.28967C143.329 7.15767 142.537 7.09167 141.767 7.09167C140.997 7.09167 140.271 7.15767 139.589 7.28967C138.929 7.39967 138.335 7.56467 137.807 7.78467C137.301 7.98267 136.894 8.23567 136.586 8.54367C136.3 8.85167 136.157 9.20367 136.157 9.59967C136.223 10.0837 136.52 10.5787 137.048 11.0847C137.576 11.5687 138.225 12.0527 138.995 12.5367C139.765 12.9987 140.612 13.4607 141.536 13.9227C142.482 14.3847 143.406 14.8247 144.308 15.2427C145.43 15.7707 146.398 16.2657 147.212 16.7277C148.026 17.1677 148.697 17.6627 149.225 18.2127C149.753 18.7407 150.149 19.3457 150.413 20.0277C150.677 20.7097 150.809 21.5347 150.809 22.5027C150.809 23.6247 150.622 24.6807 150.248 25.6707C149.874 26.6387 149.324 27.4857 148.598 28.2117C147.894 28.9377 147.036 29.4987 146.024 29.8947C145.012 30.3127 143.879 30.5217 142.625 30.5217C141.393 30.5217 140.062 30.3347 138.632 29.9607C137.202 29.5867 135.86 29.0697 134.606 28.4097C133.374 27.7717 132.34 27.0347 131.504 26.1987C130.69 25.3407 130.283 24.4387 130.283 23.4927C130.283 23.0527 130.404 22.4917 130.646 21.8097C130.91 21.1277 131.372 20.4127 132.032 19.6647C132.098 20.3247 132.45 21.1057 133.088 22.0077C133.748 22.9097 134.727 23.7457 136.025 24.5157C137.235 25.2197 138.478 25.7367 139.754 26.0667C141.052 26.3747 142.262 26.5287 143.384 26.5287C144.616 26.5287 145.617 26.3747 146.387 26.0667C147.157 25.7587 147.762 25.3957 148.202 24.9777C148.642 24.5377 148.95 24.0977 149.126 23.6577C149.302 23.2177 149.401 22.8657 149.423 22.6017C149.401 22.1617 149.192 21.7437 148.796 21.3477C148.422 20.9297 147.905 20.5337 147.245 20.1597C146.607 19.7637 145.859 19.3677 145.001 18.9717C144.143 18.5757 143.252 18.1797 142.328 17.7837C140.942 17.1677 139.743 16.5957 138.731 16.0677C137.741 15.5177 136.916 14.9677 136.256 14.4177C135.618 13.8457 135.145 13.2517 134.837 12.6357C134.551 12.0197 134.408 11.3157 134.408 10.5237C134.408 9.29167 134.782 8.12567 135.53 7.02567C136.278 5.92567 137.356 5.08967 138.764 4.51767C139.468 4.20967 140.216 3.98967 141.008 3.85767C141.822 3.72567 142.614 3.65967 143.384 3.65967C144.836 3.65967 146.255 3.85767 147.641 4.25367C149.027 4.64967 150.413 5.15567 151.799 5.77167Z" fill="#F8A19D" fill-opacity="0.84"/>
<path d="M34.3284 14.3517C34.2404 15.7157 33.9984 16.8927 33.6024 17.8827C33.2064 18.8507 32.6344 19.7087 31.8864 20.4567C31.1604 21.1827 30.2694 21.8427 29.2134 22.4367C28.1574 23.0307 26.9254 23.6027 25.5174 24.1527C25.5174 24.2847 25.5064 24.4277 25.4844 24.5817C25.4844 24.7137 25.4844 24.8567 25.4844 25.0107C25.4844 25.2967 25.5064 25.5937 25.5504 25.9017C25.5944 26.2097 25.6714 26.4957 25.7814 26.7597C25.8914 27.0237 26.0454 27.2437 26.2434 27.4197C26.4414 27.5737 26.6944 27.6507 27.0024 27.6507C27.5964 27.6507 28.1794 27.5187 28.7514 27.2547C29.3234 26.9907 29.8624 26.6717 30.3684 26.2977C30.8964 25.9017 31.3804 25.4837 31.8204 25.0437C32.2824 24.5817 32.6894 24.1637 33.0414 23.7897C33.2614 23.9877 33.4484 24.1747 33.6024 24.3507C32.6124 25.6707 31.5234 26.7707 30.3354 27.6507C29.1694 28.5087 28.0584 29.0587 27.0024 29.3007C25.4844 29.1247 24.2964 28.5747 23.4384 27.6507C22.6024 26.7047 22.1844 25.5717 22.1844 24.2517C22.1844 23.3497 22.3054 22.4367 22.5474 21.5127C22.8114 20.5667 23.1634 19.6647 23.6034 18.8067C24.0654 17.9267 24.5934 17.1017 25.1874 16.3317C25.8034 15.5617 26.4524 14.8907 27.1344 14.3187C27.8384 13.7467 28.5534 13.2957 29.2794 12.9657C30.0274 12.6357 30.7644 12.4707 31.4904 12.4707C32.5024 12.6027 33.4484 13.2297 34.3284 14.3517ZM32.0514 15.4407C31.4574 15.5287 30.8414 15.7707 30.2034 16.1667C29.5654 16.5627 28.9604 17.0907 28.3884 17.7507C27.8384 18.4107 27.3324 19.1807 26.8704 20.0607C26.4084 20.9407 26.0454 21.8867 25.7814 22.8987C27.5414 22.0187 29.0044 20.9407 30.1704 19.6647C31.3364 18.3667 31.9634 16.9587 32.0514 15.4407ZM47.2412 14.6817C47.4612 14.6817 47.7142 14.7257 48.0002 14.8137C48.3082 14.8797 48.5832 14.9787 48.8252 15.1107C49.0672 15.2207 49.2652 15.3417 49.4192 15.4737C49.5952 15.6057 49.6832 15.7267 49.6832 15.8367C49.2432 16.7607 48.8362 17.6957 48.4622 18.6417C48.0882 19.5657 47.7692 20.4567 47.5052 21.3147C47.2412 22.1727 47.0322 22.9757 46.8782 23.7237C46.7462 24.4717 46.6802 25.1207 46.6802 25.6707C46.6802 26.2867 46.7462 26.8037 46.8782 27.2217C47.0102 27.6177 47.2302 27.9037 47.5382 28.0797C47.2742 28.2557 46.9332 28.3987 46.5152 28.5087C46.0972 28.6187 45.7232 28.6737 45.3932 28.6737C44.2052 28.6737 43.6112 27.8597 43.6112 26.2317C43.6112 24.9777 44.0292 23.2617 44.8652 21.0837C44.4252 22.0957 43.9192 23.0527 43.3472 23.9547C42.7752 24.8347 42.1922 25.6157 41.5982 26.2977C41.0042 26.9797 40.3992 27.5407 39.7832 27.9807C39.1892 28.3987 38.6392 28.6517 38.1332 28.7397C37.3192 28.6957 36.6592 28.3107 36.1532 27.5847C35.6472 26.8367 35.3942 25.8907 35.3942 24.7467C35.3942 23.5147 35.6582 22.2167 36.1862 20.8527C36.7142 19.4887 37.3852 18.2237 38.1992 17.0577C39.0352 15.8917 39.9372 14.9237 40.9052 14.1537C41.8732 13.3617 42.8082 12.9437 43.7102 12.8997C43.9302 12.9657 44.1722 13.0977 44.4362 13.2957C44.7222 13.4937 44.9862 13.7247 45.2282 13.9887C45.4922 14.2527 45.7122 14.5277 45.8882 14.8137C46.0642 15.0777 46.1632 15.3087 46.1852 15.5067C45.3052 15.6387 44.3922 16.0677 43.4462 16.7937C42.5222 17.5197 41.6752 18.3997 40.9052 19.4337C40.1572 20.4457 39.5412 21.5347 39.0572 22.7007C38.5732 23.8667 38.3312 24.9557 38.3312 25.9677C38.3312 26.3857 38.4852 26.6497 38.7932 26.7597C39.4312 26.6277 40.1682 26.0887 41.0042 25.1427C41.8402 24.1747 42.8522 22.6897 44.0402 20.6877C44.2602 20.2917 44.5022 19.8517 44.7662 19.3677C45.0522 18.8837 45.3382 18.3777 45.6242 17.8497C45.9102 17.3217 46.1852 16.7937 46.4492 16.2657C46.7352 15.7157 46.9992 15.1877 47.2412 14.6817ZM50.5651 27.3537C50.6751 26.7157 50.8621 25.8797 51.1261 24.8457C51.4121 23.7897 51.7421 22.6787 52.1161 21.5127C52.4901 20.3247 52.8861 19.1367 53.3041 17.9487C53.7221 16.7607 54.1291 15.6937 54.5251 14.7477C54.8111 14.0657 55.0641 13.5377 55.2841 13.1637C55.5041 12.7677 55.7461 12.4377 56.0101 12.1737C56.3181 12.2177 56.6371 12.2947 56.9671 12.4047C57.2971 12.5147 57.6161 12.6467 57.9241 12.8007C58.2321 12.9547 58.5071 13.1197 58.7491 13.2957C58.9911 13.4497 59.1781 13.6037 59.3101 13.7577C58.7161 14.4617 58.1881 15.2647 57.7261 16.1667C57.2861 17.0687 56.8351 18.2237 56.3731 19.6317C57.5611 18.5757 58.6061 17.5637 59.5081 16.5957C60.4321 15.6277 61.2901 14.5497 62.0821 13.3617C62.2141 13.2517 62.4451 13.1967 62.7751 13.1967C63.0831 13.1967 63.3801 13.2517 63.6661 13.3617C63.9521 13.4497 64.1501 13.5817 64.2601 13.7577C63.8641 14.8137 63.6661 15.8587 63.6661 16.8927C63.6661 17.8607 63.8091 18.5867 64.0951 19.0707C64.0731 19.2027 63.9191 19.4557 63.6331 19.8297C63.3691 20.2037 63.0721 20.5557 62.7421 20.8857C62.1481 20.5777 61.6201 20.1597 61.1581 19.6317C60.6961 19.0817 60.3551 18.4877 60.1351 17.8497C59.1011 18.5757 58.2211 19.2907 57.4951 19.9947C56.7691 20.6767 56.1421 21.4467 55.6141 22.3047C55.1081 23.1407 54.6681 24.1087 54.2941 25.2087C53.9421 26.3087 53.6011 27.6177 53.2711 29.1357C53.0731 29.1137 52.8311 29.0367 52.5451 28.9047C52.2811 28.7947 52.0061 28.6517 51.7201 28.4757C51.4561 28.2997 51.2141 28.1127 50.9941 27.9147C50.7741 27.7167 50.6311 27.5297 50.5651 27.3537ZM86.7089 25.9017C86.7089 24.9337 86.9399 23.5807 87.4019 21.8427C87.8639 20.0827 88.5129 18.0367 89.3489 15.7047C90.7129 11.9867 91.9889 8.89567 93.1769 6.43167C94.3869 3.94567 95.5639 2.00967 96.7079 0.62367C96.9719 0.66767 97.2909 0.77767 97.6649 0.95367C98.0609 1.12967 98.4459 1.32767 98.8199 1.54767C99.1939 1.74567 99.5239 1.95467 99.8099 2.17467C100.118 2.39467 100.316 2.57067 100.404 2.70267C98.6879 4.72667 97.1809 6.90467 95.8829 9.23667C94.5849 11.5687 93.3969 14.2417 92.3189 17.2557C91.3949 19.8517 90.6909 22.1947 90.2069 24.2847C89.7229 26.3527 89.4809 28.0797 89.4809 29.4657C89.4809 29.8397 89.4809 30.0707 89.4809 30.1587C89.4809 30.2467 89.4919 30.3347 89.5139 30.4227C89.2059 30.3787 88.9419 30.3017 88.7219 30.1917C88.5019 30.0817 88.3589 29.9497 88.2929 29.7957C88.2489 29.6857 88.1279 29.5207 87.9299 29.3007C87.7319 29.1027 87.5559 28.9487 87.4019 28.8387C87.2039 28.7067 87.0389 28.3657 86.9069 27.8157C86.7749 27.2437 86.7089 26.6057 86.7089 25.9017ZM94.5737 25.8027C94.5737 25.6047 94.5847 25.3627 94.6067 25.0767C94.6507 24.7687 94.7167 24.3727 94.8047 23.8887C94.8927 23.3827 95.0027 22.7777 95.1347 22.0737C95.2887 21.3697 95.4757 20.5227 95.6957 19.5327C95.7397 19.3127 95.8387 18.9607 95.9927 18.4767C96.1467 17.9927 96.3447 17.4867 96.5867 16.9587C96.8507 16.4087 97.1587 15.8807 97.5107 15.3747C97.8847 14.8687 98.3247 14.4947 98.8307 14.2527C99.2047 14.3407 99.6997 14.5717 100.316 14.9457C100.932 15.2977 101.46 15.7927 101.9 16.4307C101.394 17.0027 100.965 17.5747 100.613 18.1467C100.283 18.7187 99.9747 19.3127 99.6887 19.9287C99.4247 20.5447 99.1717 21.1827 98.9297 21.8427C98.7097 22.5027 98.4567 23.1957 98.1707 23.9217C97.9287 24.5377 97.7087 25.1757 97.5107 25.8357C97.3127 26.4737 97.2027 27.0347 97.1807 27.5187C97.1807 27.9147 97.1697 28.1897 97.1477 28.3437C97.1477 28.5197 97.0927 28.6077 96.9827 28.6077C96.8947 28.6077 96.7187 28.5527 96.4547 28.4427C96.1907 28.3327 95.9157 28.1677 95.6297 27.9477C95.3657 27.7057 95.1237 27.4087 94.9037 27.0567C94.6837 26.7047 94.5737 26.2867 94.5737 25.8027ZM100.877 11.4807C100.877 11.3487 100.91 11.1507 100.976 10.8867C100.866 10.7767 100.767 10.6117 100.679 10.3917C100.613 10.1717 100.58 9.97367 100.58 9.79767C100.58 9.59967 100.602 9.33567 100.646 9.00567C100.712 8.65367 100.789 8.27967 100.877 7.88367C100.965 7.48767 101.075 7.08067 101.207 6.66267C101.339 6.22267 101.471 5.82667 101.603 5.47467C101.867 5.47467 102.186 5.55167 102.56 5.70567C102.956 5.83767 103.352 6.02467 103.748 6.26667C104.144 6.48667 104.507 6.73967 104.837 7.02567C105.167 7.28967 105.42 7.54267 105.596 7.78467C105.354 8.02667 105.035 8.36767 104.639 8.80767C104.243 9.22567 103.858 9.67667 103.484 10.1607C103.11 10.6227 102.769 11.0627 102.461 11.4807C102.153 11.8987 101.955 12.1957 101.867 12.3717C101.603 12.3277 101.372 12.2177 101.174 12.0417C100.976 11.8437 100.877 11.6567 100.877 11.4807ZM104.155 16.3317C104.155 15.9357 104.177 15.5617 104.221 15.2097C104.287 14.8577 104.408 14.5607 104.584 14.3187C104.76 14.0547 105.002 13.8567 105.31 13.7247C105.618 13.5707 106.025 13.4937 106.531 13.4937C106.839 13.4937 107.18 13.5267 107.554 13.5927C107.95 13.6587 108.236 13.7797 108.412 13.9557C108.324 14.3297 108.247 14.6597 108.181 14.9457C108.137 15.2317 108.093 15.5507 108.049 15.9027C108.027 16.2327 108.005 16.6397 107.983 17.1237C107.961 17.5857 107.939 18.1907 107.917 18.9387C107.873 20.4347 107.796 21.7767 107.686 22.9647C107.598 24.1307 107.378 25.2967 107.026 26.4627C107.026 26.5507 107.059 26.5947 107.125 26.5947C107.455 26.3527 107.829 26.0007 108.247 25.5387C108.665 25.0767 109.105 24.5597 109.567 23.9877C110.029 23.3937 110.491 22.7667 110.953 22.1067C111.415 21.4467 111.844 20.7977 112.24 20.1597C112.768 19.2357 113.351 18.0807 113.989 16.6947C114.627 15.3087 115.155 13.8237 115.573 12.2397C115.705 12.2397 115.87 12.2727 116.068 12.3387C116.288 12.3827 116.497 12.4487 116.695 12.5367C116.915 12.6027 117.102 12.6797 117.256 12.7677C117.432 12.8557 117.553 12.9327 117.619 12.9987C117.575 13.9447 117.344 14.9127 116.926 15.9027C116.53 16.8927 116.046 17.8497 115.474 18.7737C114.902 19.6977 114.297 20.5667 113.659 21.3807C113.021 22.1947 112.438 22.8987 111.91 23.4927C110.854 24.7247 109.787 25.8247 108.709 26.7927C107.653 27.7607 106.388 28.6957 104.914 29.5977C104.342 29.3777 103.891 29.0807 103.561 28.7067C103.231 28.3547 103.066 27.9807 103.066 27.5847C103.066 27.3207 103.121 27.0237 103.231 26.6937C103.363 26.3417 103.506 25.9017 103.66 25.3737C103.814 24.8237 103.946 24.1417 104.056 23.3277C104.188 22.5137 104.254 21.4797 104.254 20.2257C104.254 19.4997 104.232 18.7737 104.188 18.0477C104.166 17.2997 104.155 16.7277 104.155 16.3317ZM128.946 14.3517C128.858 15.7157 128.616 16.8927 128.22 17.8827C127.824 18.8507 127.252 19.7087 126.504 20.4567C125.778 21.1827 124.887 21.8427 123.831 22.4367C122.775 23.0307 121.543 23.6027 120.135 24.1527C120.135 24.2847 120.124 24.4277 120.102 24.5817C120.102 24.7137 120.102 24.8567 120.102 25.0107C120.102 25.2967 120.124 25.5937 120.168 25.9017C120.212 26.2097 120.289 26.4957 120.399 26.7597C120.509 27.0237 120.663 27.2437 120.861 27.4197C121.059 27.5737 121.312 27.6507 121.62 27.6507C122.214 27.6507 122.797 27.5187 123.369 27.2547C123.941 26.9907 124.48 26.6717 124.986 26.2977C125.514 25.9017 125.998 25.4837 126.438 25.0437C126.9 24.5817 127.307 24.1637 127.659 23.7897C127.879 23.9877 128.066 24.1747 128.22 24.3507C127.23 25.6707 126.141 26.7707 124.953 27.6507C123.787 28.5087 122.676 29.0587 121.62 29.3007C120.102 29.1247 118.914 28.5747 118.056 27.6507C117.22 26.7047 116.802 25.5717 116.802 24.2517C116.802 23.3497 116.923 22.4367 117.165 21.5127C117.429 20.5667 117.781 19.6647 118.221 18.8067C118.683 17.9267 119.211 17.1017 119.805 16.3317C120.421 15.5617 121.07 14.8907 121.752 14.3187C122.456 13.7467 123.171 13.2957 123.897 12.9657C124.645 12.6357 125.382 12.4707 126.108 12.4707C127.12 12.6027 128.066 13.2297 128.946 14.3517ZM126.669 15.4407C126.075 15.5287 125.459 15.7707 124.821 16.1667C124.183 16.5627 123.578 17.0907 123.006 17.7507C122.456 18.4107 121.95 19.1807 121.488 20.0607C121.026 20.9407 120.663 21.8867 120.399 22.8987C122.159 22.0187 123.622 20.9407 124.788 19.6647C125.954 18.3667 126.581 16.9587 126.669 15.4407ZM153.722 21.8777C154.121 21.5483 154.537 21.2927 154.97 21.1107C155.412 20.9287 155.854 20.8377 156.296 20.8377C156.695 20.8377 157.072 20.9113 157.427 21.0587C157.791 21.206 158.107 21.401 158.376 21.6437C158.653 21.8777 158.874 22.1463 159.039 22.4497C159.204 22.7443 159.286 23.039 159.286 23.3337C159.286 23.5677 159.234 23.819 159.13 24.0877C159.035 24.3477 158.905 24.612 158.74 24.8807C158.575 25.1407 158.385 25.392 158.168 25.6347C157.951 25.8773 157.726 26.094 157.492 26.2847C157.267 26.4667 157.037 26.614 156.803 26.7267C156.569 26.8307 156.357 26.8827 156.166 26.8827C155.984 26.8827 155.802 26.8393 155.62 26.7527C155.438 26.6573 155.273 26.5403 155.126 26.4017C154.979 26.2543 154.857 26.094 154.762 25.9207C154.675 25.7387 154.632 25.5567 154.632 25.3747C154.632 25.1667 154.671 24.9543 154.749 24.7377C154.827 24.5123 154.944 24.3043 155.1 24.1137C155.256 23.9143 155.451 23.7367 155.685 23.5807C155.919 23.416 156.192 23.286 156.504 23.1907C156.66 23.2513 156.807 23.3337 156.946 23.4377C157.093 23.5417 157.223 23.6587 157.336 23.7887C157.449 23.9187 157.54 24.0573 157.609 24.2047C157.678 24.3433 157.717 24.482 157.726 24.6207C157.561 24.5513 157.388 24.5167 157.206 24.5167C157.024 24.5167 156.851 24.5557 156.686 24.6337C156.53 24.7117 156.391 24.8113 156.27 24.9327C156.157 25.054 156.066 25.197 155.997 25.3617C155.928 25.5177 155.893 25.678 155.893 25.8427C155.893 26.0853 156.014 26.2067 156.257 26.2067C156.482 26.2067 156.742 26.0983 157.037 25.8817C157.332 25.665 157.609 25.3963 157.869 25.0757C158.129 24.755 158.35 24.4213 158.532 24.0747C158.714 23.7193 158.805 23.403 158.805 23.1257C158.805 22.9437 158.762 22.7747 158.675 22.6187C158.597 22.4627 158.484 22.3283 158.337 22.2157C158.198 22.0943 158.034 22.0033 157.843 21.9427C157.652 21.8733 157.449 21.8387 157.232 21.8387C156.781 21.8387 156.322 21.9773 155.854 22.2547C155.386 22.5233 154.957 22.8743 154.567 23.3077C154.186 23.7323 153.874 24.209 153.631 24.7377C153.388 25.2663 153.267 25.7863 153.267 26.2977C153.267 26.6183 153.315 26.9173 153.41 27.1947C153.505 27.472 153.635 27.7147 153.8 27.9227C153.973 28.1307 154.173 28.2953 154.398 28.4167C154.632 28.538 154.883 28.5987 155.152 28.5987C155.533 28.5987 155.954 28.46 156.413 28.1827C156.881 27.9053 157.453 27.4547 158.129 26.8307C158.172 26.9087 158.198 26.965 158.207 26.9997C158.224 27.0343 158.233 27.0733 158.233 27.1167C157.973 27.3767 157.709 27.6323 157.44 27.8837C157.171 28.135 156.894 28.356 156.608 28.5467C156.331 28.746 156.04 28.902 155.737 29.0147C155.442 29.136 155.139 29.1967 154.827 29.1967C154.394 29.1967 153.986 29.084 153.605 28.8587C153.232 28.6333 152.903 28.3517 152.617 28.0137C152.34 27.667 152.119 27.29 151.954 26.8827C151.789 26.4667 151.707 26.0723 151.707 25.6997C151.707 25.4483 151.746 25.1623 151.824 24.8417C151.911 24.5123 152.036 24.1787 152.201 23.8407C152.366 23.494 152.574 23.1517 152.825 22.8137C153.085 22.4757 153.384 22.1637 153.722 21.8777ZM161.11 29.0017C160.616 28.8543 160.282 28.7113 160.109 28.5727C159.935 28.4427 159.849 28.2607 159.849 28.0267C159.849 27.7667 159.909 27.4027 160.031 26.9347C160.152 26.458 160.308 25.9293 160.499 25.3487C160.698 24.768 160.923 24.1613 161.175 23.5287C161.426 22.896 161.682 22.2893 161.942 21.7087C162.202 21.128 162.453 20.5993 162.696 20.1227C162.947 19.6373 163.168 19.2603 163.359 18.9917L163.268 18.4457C163.389 18.4457 163.558 18.476 163.775 18.5367C163.991 18.5973 164.208 18.671 164.425 18.7577C164.65 18.8443 164.845 18.9353 165.01 19.0307C165.183 19.1173 165.278 19.191 165.296 19.2517C165.252 19.4597 165.218 19.776 165.192 20.2007C165.166 20.6167 165.153 21.063 165.153 21.5397C165.153 22.4843 165.187 23.4117 165.257 24.3217C165.335 25.223 165.508 26.1417 165.777 27.0777C165.915 26.3843 166.063 25.6953 166.219 25.0107C166.383 24.3173 166.552 23.6587 166.726 23.0347C166.899 22.402 167.072 21.817 167.246 21.2797C167.419 20.7423 167.584 20.2743 167.74 19.8757C167.904 19.4683 168.056 19.152 168.195 18.9267C168.333 18.6927 168.459 18.567 168.572 18.5497C168.667 18.567 168.771 18.606 168.884 18.6667C168.996 18.7187 169.105 18.7837 169.209 18.8617C169.313 18.9397 169.408 19.0263 169.495 19.1217C169.581 19.217 169.651 19.3123 169.703 19.4077C169.425 19.5203 169.148 19.7847 168.871 20.2007C168.602 20.6167 168.342 21.1237 168.091 21.7217C167.848 22.311 167.618 22.9523 167.402 23.6457C167.194 24.339 167.007 25.0237 166.843 25.6997C166.687 26.367 166.561 26.9867 166.466 27.5587C166.379 28.1307 166.331 28.59 166.323 28.9367C166.323 28.954 166.327 28.967 166.336 28.9757C166.31 28.9843 166.279 28.9887 166.245 28.9887C166.219 28.9887 166.193 28.9887 166.167 28.9887C165.768 28.9887 165.413 28.9367 165.101 28.8327C164.797 28.7373 164.598 28.5987 164.503 28.4167C164.321 27.6887 164.169 26.9867 164.048 26.3107C163.926 25.6347 163.822 24.9587 163.736 24.2827C163.658 23.6067 163.593 22.9263 163.541 22.2417C163.497 21.5483 163.463 20.8247 163.437 20.0707C163.272 20.3307 163.099 20.673 162.917 21.0977C162.735 21.5137 162.557 21.973 162.384 22.4757C162.21 22.9783 162.041 23.507 161.877 24.0617C161.721 24.6163 161.582 25.158 161.461 25.6867C161.339 26.2153 161.244 26.718 161.175 27.1947C161.105 27.6627 161.071 28.07 161.071 28.4167C161.071 28.5987 161.071 28.7287 161.071 28.8067C161.079 28.8847 161.092 28.9497 161.11 29.0017ZM173.819 19.2647C173.437 19.776 173.091 20.3393 172.779 20.9547C172.467 21.57 172.198 22.2027 171.973 22.8527C171.756 23.494 171.587 24.131 171.466 24.7637C171.353 25.3877 171.297 25.9727 171.297 26.5187C171.297 27.1947 171.396 27.6843 171.596 27.9877C171.795 28.291 172.137 28.4427 172.623 28.4427C173.186 28.4427 173.68 28.2477 174.105 27.8577C174.529 27.459 174.928 26.913 175.301 26.2197C175.543 25.769 175.751 25.275 175.925 24.7377C176.098 24.2003 176.237 23.65 176.341 23.0867C176.453 22.5147 176.536 21.9427 176.588 21.3707C176.64 20.79 176.666 20.2353 176.666 19.7067C176.666 19.3687 176.661 19.1217 176.653 18.9657C176.644 18.8097 176.631 18.684 176.614 18.5887C176.64 18.5887 176.705 18.5973 176.809 18.6147C176.913 18.632 177.03 18.6537 177.16 18.6797C177.298 18.7057 177.433 18.7403 177.563 18.7837C177.701 18.827 177.818 18.8747 177.914 18.9267C177.87 19.5853 177.788 20.2657 177.667 20.9677C177.554 21.6697 177.402 22.363 177.212 23.0477C177.021 23.7323 176.8 24.391 176.549 25.0237C176.297 25.6563 176.016 26.224 175.704 26.7267C175.244 27.472 174.729 28.0527 174.157 28.4687C173.585 28.8933 172.909 29.1057 172.129 29.1057C171.331 29.1057 170.712 28.8717 170.27 28.4037C169.828 27.9443 169.607 27.2423 169.607 26.2977C169.607 25.7517 169.667 25.1363 169.789 24.4517C169.91 23.7583 170.07 23.0563 170.27 22.3457C170.478 21.6263 170.716 20.9287 170.985 20.2527C171.253 19.568 171.535 18.957 171.83 18.4197C171.977 18.4283 172.15 18.4587 172.35 18.5107C172.549 18.5627 172.744 18.632 172.935 18.7187C173.125 18.7967 173.299 18.8877 173.455 18.9917C173.619 19.087 173.741 19.178 173.819 19.2647ZM186.367 19.2517C186.393 19.399 186.41 19.503 186.419 19.5637C186.436 19.6157 186.445 19.6893 186.445 19.7847C186.445 20.0707 186.38 20.3393 186.25 20.5907C186.129 20.8333 185.96 21.0067 185.743 21.1107C185.57 20.8767 185.357 20.6773 185.106 20.5127C184.855 20.3393 184.577 20.2007 184.274 20.0967C183.979 19.984 183.672 19.9017 183.351 19.8497C183.03 19.7977 182.718 19.7717 182.415 19.7717C182.112 19.7717 181.826 19.7977 181.557 19.8497C181.297 19.893 181.063 19.958 180.855 20.0447C180.656 20.1227 180.495 20.2223 180.374 20.3437C180.261 20.465 180.205 20.6037 180.205 20.7597C180.231 20.9503 180.348 21.1453 180.556 21.3447C180.764 21.5353 181.02 21.726 181.323 21.9167C181.626 22.0987 181.96 22.2807 182.324 22.4627C182.697 22.6447 183.061 22.818 183.416 22.9827C183.858 23.1907 184.239 23.3857 184.56 23.5677C184.881 23.741 185.145 23.936 185.353 24.1527C185.561 24.3607 185.717 24.599 185.821 24.8677C185.925 25.1363 185.977 25.4613 185.977 25.8427C185.977 26.2847 185.903 26.7007 185.756 27.0907C185.609 27.472 185.392 27.8057 185.106 28.0917C184.829 28.3777 184.491 28.5987 184.092 28.7547C183.693 28.9193 183.247 29.0017 182.753 29.0017C182.268 29.0017 181.743 28.928 181.18 28.7807C180.617 28.6333 180.088 28.4297 179.594 28.1697C179.109 27.9183 178.701 27.628 178.372 27.2987C178.051 26.9607 177.891 26.6053 177.891 26.2327C177.891 26.0593 177.939 25.8383 178.034 25.5697C178.138 25.301 178.32 25.0193 178.58 24.7247C178.606 24.9847 178.745 25.2923 178.996 25.6477C179.256 26.003 179.642 26.3323 180.153 26.6357C180.63 26.913 181.119 27.1167 181.622 27.2467C182.133 27.368 182.61 27.4287 183.052 27.4287C183.537 27.4287 183.932 27.368 184.235 27.2467C184.538 27.1253 184.777 26.9823 184.95 26.8177C185.123 26.6443 185.245 26.471 185.314 26.2977C185.383 26.1243 185.422 25.9857 185.431 25.8817C185.422 25.7083 185.34 25.5437 185.184 25.3877C185.037 25.223 184.833 25.067 184.573 24.9197C184.322 24.7637 184.027 24.6077 183.689 24.4517C183.351 24.2957 183 24.1397 182.636 23.9837C182.09 23.741 181.618 23.5157 181.219 23.3077C180.829 23.091 180.504 22.8743 180.244 22.6577C179.993 22.4323 179.806 22.1983 179.685 21.9557C179.572 21.713 179.516 21.4357 179.516 21.1237C179.516 20.6383 179.663 20.179 179.958 19.7457C180.253 19.3123 180.677 18.983 181.232 18.7577C181.509 18.6363 181.804 18.5497 182.116 18.4977C182.437 18.4457 182.749 18.4197 183.052 18.4197C183.624 18.4197 184.183 18.4977 184.729 18.6537C185.275 18.8097 185.821 19.009 186.367 19.2517Z" fill="black"/>
</svg>
