<?xml version="1.0" standalone="no"?>
<!DOCTYPE svg PUBLIC "-//W3C//DTD SVG 20010904//EN"
 "http://www.w3.org/TR/2001/REC-SVG-20010904/DTD/svg10.dtd">
<svg version="1.0" xmlns="http://www.w3.org/2000/svg"
 width="952.000000pt" height="470.000000pt" viewBox="0 0 952.000000 470.000000"
 preserveAspectRatio="xMidYMid meet">

<g transform="translate(0.000000,470.000000) scale(0.100000,-0.100000)"
fill="#000000" stroke="none">
<path d="M0 2350 l0 -2350 4760 0 4760 0 0 2350 0 2350 -4760 0 -4760 0 0
-2350z m3204 1018 c12 -555 17 -1748 8 -1748 -6 0 -12 339 -16 878 -3 482 -9
937 -12 1010 -3 82 -2 132 4 132 6 0 12 -108 16 -272z m2997 -200 c0 -260 4
-711 8 -1003 5 -291 5 -534 1 -538 -9 -10 -18 447 -26 1321 -5 518 -4 692 5
692 8 0 11 -124 12 -472z m-4210 154 c71 -33 134 -95 170 -167 26 -53 31 -75
31 -134 0 -89 -24 -160 -75 -217 -140 -159 -383 -174 -533 -33 -74 70 -107
144 -108 239 -1 66 3 84 32 142 41 83 111 149 190 177 77 28 225 24 293 -7z
m2784 7 c69 -26 151 -99 190 -171 27 -47 30 -62 30 -143 0 -84 -2 -94 -34
-153 -58 -106 -144 -165 -270 -185 -86 -13 -179 7 -253 54 -242 156 -198 506
75 600 74 26 191 25 262 -2z m2935 -13 c65 -33 134 -96 160 -147 32 -61 45
-148 32 -213 -16 -78 -36 -116 -89 -171 -58 -58 -121 -90 -207 -106 -168 -31
-356 76 -402 228 -24 77 -20 174 9 237 65 140 182 208 352 203 75 -3 99 -8
145 -31z m-6295 -960 c24 -20 27 -27 18 -37 -10 -10 -17 -8 -36 9 -44 41 -87
18 -87 -47 0 -57 42 -83 83 -50 32 25 39 24 35 -3 -7 -52 -103 -60 -135 -11
-20 30 -21 106 -3 129 33 39 84 43 125 10z m2665 -40 c0 -85 5 -96 45 -96 40
0 45 11 45 96 0 50 3 64 15 64 12 0 15 -15 15 -75 0 -68 -3 -79 -26 -102 -21
-21 -32 -24 -61 -20 -57 10 -63 20 -63 113 0 68 3 84 15 84 12 0 15 -14 15
-64z m340 48 c0 -9 -7 -14 -17 -12 -25 5 -28 28 -4 28 12 0 21 -6 21 -16z
m590 1 c0 -8 -7 -15 -15 -15 -8 0 -15 7 -15 15 0 8 7 15 15 15 8 0 15 -7 15
-15z m2367 -54 l42 -63 3 63 c2 36 8 64 15 66 8 3 13 -22 15 -84 5 -138 -2
-142 -72 -42 l-45 64 -5 -63 c-7 -89 -24 -77 -28 20 -5 131 8 138 75 39z m144
59 c1 -5 3 -14 4 -20 1 -5 3 -36 4 -69 1 -51 4 -59 23 -64 45 -12 58 7 58 88
0 57 3 75 14 75 20 0 24 -26 17 -105 -5 -61 -9 -71 -31 -82 -35 -18 -64 -16
-91 6 -19 15 -24 30 -27 84 -2 37 -2 73 2 82 6 17 25 20 27 5z m270 0 c17 -10
29 -56 12 -48 -5 2 -20 10 -35 17 -28 14 -58 9 -58 -9 0 -6 20 -20 45 -31 53
-24 72 -51 57 -84 -21 -45 -132 -40 -132 6 0 23 9 24 39 3 18 -13 28 -14 48
-5 33 15 25 31 -22 48 -50 17 -65 31 -65 59 0 42 65 68 111 44z m-2682 -40
c19 0 12 -17 -9 -23 -25 -7 -28 -68 -4 -92 23 -22 4 -41 -25 -26 -17 10 -21
21 -21 66 0 45 -3 55 -17 56 -12 0 -13 2 -5 6 7 3 18 17 23 32 l11 26 18 -22
c10 -13 23 -23 29 -23z m-691 -75 c-2 -44 -8 -70 -15 -73 -10 -3 -13 16 -13
71 0 40 3 77 7 81 16 15 24 -15 21 -79z m-2850 63 c7 -7 12 -38 12 -69 l0 -56
-42 -6 c-51 -7 -78 6 -78 37 0 29 16 43 54 48 16 1 32 9 34 17 4 11 -5 12 -42
7 -50 -8 -54 -5 -30 18 18 19 75 21 92 4z m236 -11 c11 -43 7 -115 -8 -120
-18 -7 -26 13 -26 69 0 37 -3 44 -20 44 -18 0 -20 -7 -20 -55 0 -48 -2 -55
-20 -55 -18 0 -20 7 -20 55 0 48 -2 55 -20 55 -18 0 -20 -7 -20 -55 0 -48 -2
-55 -20 -55 -18 0 -20 7 -20 70 l0 69 94 0 c88 -1 95 -2 100 -22z m150 7 c19
-18 22 -94 4 -112 -7 -7 -29 -12 -50 -12 -36 0 -38 -2 -38 -30 0 -20 -5 -30
-15 -30 -12 0 -15 18 -15 100 l0 100 49 0 c32 0 55 -6 65 -16z m76 -39 c0 -52
1 -55 25 -55 20 0 25 6 31 35 3 19 4 41 1 50 -6 15 10 32 20 21 3 -3 8 -35 10
-71 l4 -66 -58 3 -58 3 -3 68 c-2 55 0 67 13 67 12 0 15 -12 15 -55z m218 43
c22 -22 13 -28 -28 -22 -46 8 -57 -12 -12 -22 38 -9 52 -23 52 -50 0 -30 -36
-46 -80 -38 -21 5 -30 12 -30 25 0 22 12 24 40 7 15 -10 22 -10 31 -1 12 12 0
20 -53 37 -21 6 -24 46 -6 64 7 7 26 12 43 12 17 0 36 -5 43 -12z m2100 -66
c2 -57 0 -73 -10 -70 -8 3 -14 26 -16 61 -3 53 -5 57 -27 57 -22 0 -24 -5 -27
-52 -2 -41 -7 -54 -20 -56 -16 -3 -18 5 -18 61 0 35 3 67 7 71 4 4 30 6 58 4
l50 -3 3 -73z m140 30 c8 -23 17 -42 22 -42 4 0 13 20 19 45 7 28 17 45 26 45
19 0 19 -4 -6 -77 -20 -62 -40 -82 -57 -60 -11 15 -42 105 -42 125 0 28 25 4
38 -36z m210 36 c7 -7 12 -27 12 -45 l0 -33 -45 7 c-47 6 -58 -4 -30 -27 12
-10 22 -10 39 -2 13 6 27 8 30 5 30 -30 -50 -55 -90 -28 -19 12 -24 24 -24 57
0 25 7 49 17 60 18 20 73 24 91 6z m122 -3 c0 -8 -9 -15 -19 -15 -22 0 -28
-15 -30 -75 -2 -44 -5 -50 -20 -40 -6 3 -11 37 -11 76 l0 69 40 0 c29 0 40 -4
40 -15z m120 -5 c10 -19 9 -20 -30 -14 -27 5 -40 3 -40 -5 0 -12 7 -15 53 -25
22 -5 27 -12 27 -36 0 -22 -6 -33 -24 -41 -31 -14 -80 1 -85 26 -2 14 1 16 15
10 28 -11 49 -11 52 0 2 6 -11 15 -30 21 -60 20 -47 84 18 84 23 0 37 -6 44
-20z m68 -52 c-2 -40 -7 -73 -13 -73 -5 0 -11 33 -13 73 -2 60 0 72 13 72 13
0 15 -12 13 -72z m164 32 c16 -65 20 -67 37 -16 18 50 41 73 41 39 0 -36 -53
-164 -73 -174 -26 -15 -51 7 -24 22 22 13 22 33 -3 104 -24 70 -24 67 -3 63
10 -2 20 -18 25 -38z m2508 -224 c0 -18 -17 -29 -30 -21 -8 5 -7 11 1 21 15
18 29 18 29 0z m-6157 -11 c1 -5 -18 -12 -43 -15 -37 -4 -45 -9 -45 -25 0 -16
8 -21 43 -23 28 -2 42 -8 42 -18 0 -10 -12 -14 -40 -14 -29 0 -40 -4 -40 -15
0 -8 -1 -18 -2 -22 -2 -5 17 -10 41 -13 73 -8 64 -30 -13 -30 l-66 0 0 88 c0
49 3 92 7 96 11 10 113 3 116 -9z m2475 -1 c14 -9 22 -26 22 -44 0 -48 -9 -59
-56 -66 -40 -6 -44 -9 -44 -35 0 -19 -5 -29 -15 -29 -12 0 -15 17 -15 95 l0
95 43 0 c23 0 53 -7 65 -16z m3264 -6 c27 -27 10 -36 -32 -18 -31 13 -60 8
-60 -9 0 -6 21 -21 48 -33 39 -19 47 -28 50 -54 3 -35 -11 -51 -56 -60 -25 -5
-36 -1 -58 21 -18 19 -23 30 -16 37 8 8 16 6 28 -6 21 -21 68 -17 72 6 2 12
-5 19 -25 24 -44 10 -73 32 -73 56 0 55 79 79 122 36z m-5222 -7 c0 -11 9 -21
23 -25 l22 -7 -22 -9 c-17 -7 -23 -18 -23 -39 0 -39 9 -61 26 -61 8 0 14 -4
14 -10 0 -17 -57 -12 -64 6 -3 9 -6 36 -6 60 0 32 -4 44 -15 44 -8 0 -15 5
-15 10 0 6 7 10 15 10 8 0 15 9 15 20 0 11 7 20 15 20 8 0 15 -8 15 -19z
m5307 -1 c3 -11 12 -20 19 -20 8 0 14 -4 14 -10 0 -5 -6 -10 -14 -10 -29 0
-28 -69 2 -102 14 -17 13 -18 -11 -18 -32 0 -47 25 -47 79 0 22 -6 42 -12 45
-10 5 -10 7 0 12 6 3 12 14 12 25 0 25 30 25 37 -1z m478 -40 c30 -33 16 -55
-38 -58 -60 -4 -59 -27 1 -27 22 0 43 -3 46 -6 15 -15 -37 -34 -81 -30 -41 4
-60 93 -25 123 34 30 68 30 97 -2z m-6227 -35 l15 -50 15 53 c11 38 20 52 33
52 17 0 16 -4 -5 -67 -28 -84 -49 -93 -75 -31 -11 24 -23 56 -27 71 -6 24 -4
28 11 25 12 -2 23 -21 33 -53z m210 30 c21 -45 16 -54 -35 -57 -29 -2 -48 -8
-51 -17 -4 -11 6 -13 47 -9 53 5 62 0 36 -22 -22 -18 -73 -15 -97 7 -16 14
-19 26 -15 58 7 46 28 65 72 65 24 0 35 -6 43 -25z m150 13 c7 -7 12 -38 12
-70 0 -45 -3 -58 -15 -58 -10 0 -15 10 -15 33 0 56 -10 77 -36 77 -22 0 -24
-4 -24 -55 0 -42 -3 -55 -15 -55 -12 0 -15 14 -15 70 l0 70 48 0 c26 0 53 -5
60 -12z m226 6 c9 -3 16 -13 16 -21 0 -8 -6 -13 -12 -10 -41 15 -57 17 -63 7
-4 -7 10 -17 34 -27 46 -18 61 -47 37 -71 -16 -16 -74 -20 -95 -7 -20 12 -13
37 9 31 11 -3 29 -9 40 -12 14 -4 20 -1 20 10 0 9 -12 19 -27 22 -36 9 -53 22
-53 43 0 35 48 53 94 35z m1946 -2 c0 -5 -11 -14 -25 -20 -22 -10 -25 -18 -25
-62 0 -38 -4 -50 -15 -50 -12 0 -15 14 -15 63 0 35 3 67 7 70 9 10 73 9 73 -1z
m122 -9 c24 -21 24 -84 1 -105 -32 -28 -58 -30 -86 -7 -21 16 -27 29 -27 59 0
22 7 45 16 54 20 21 73 20 96 -1z m171 -30 c6 -46 2 -117 -8 -134 -9 -14 -61
-20 -88 -10 -41 16 -33 32 15 29 32 -2 43 1 45 13 3 12 -4 14 -30 11 -41 -5
-57 13 -60 66 -2 55 15 72 73 72 l47 0 6 -47z m117 39 c0 -5 -11 -14 -25 -20
-22 -10 -25 -18 -25 -62 0 -38 -4 -50 -15 -50 -8 0 -15 3 -16 8 -6 48 -8 110
-4 120 5 13 85 17 85 4z m118 -4 c7 -7 12 -38 12 -70 l0 -59 -57 3 c-57 3 -58
3 -61 36 -3 33 -1 35 51 46 44 10 33 29 -13 23 -22 -3 -40 -2 -40 2 0 17 27
31 60 31 20 0 41 -5 48 -12z m230 -60 c2 -56 0 -68 -13 -68 -12 0 -15 12 -15
56 0 52 -1 55 -22 52 -20 -3 -23 -10 -26 -55 -2 -38 -7 -53 -18 -53 -10 0 -14
14 -14 55 0 52 -1 55 -25 55 -24 0 -25 -3 -25 -55 0 -42 -3 -55 -15 -55 -12 0
-15 14 -15 63 0 35 3 67 7 70 3 4 45 6 92 4 l86 -2 3 -67z m224 58 c4 -6 8
-37 8 -68 0 -45 -3 -58 -15 -58 -12 0 -15 13 -15 55 0 52 -1 55 -25 55 -24 0
-25 -3 -25 -55 0 -41 -4 -55 -14 -55 -11 0 -16 15 -18 53 -3 45 -6 52 -25 55
-22 3 -23 0 -23 -52 0 -42 -4 -56 -14 -56 -11 0 -15 17 -18 66 -1 36 -1 67 1
69 9 10 177 1 183 -9z m154 -15 c19 -37 7 -51 -42 -51 -34 0 -44 -4 -44 -16 0
-14 8 -16 45 -12 34 4 45 2 45 -8 0 -19 -45 -36 -76 -28 -30 8 -44 32 -44 78
0 46 23 68 69 64 26 -2 39 -9 47 -27z m142 6 c4 -18 2 -18 -58 -3 -3 0 -7 -3
-10 -9 -3 -5 10 -15 29 -21 41 -13 56 -36 41 -64 -14 -25 -48 -34 -83 -21 -32
12 -39 47 -7 37 11 -3 29 -9 40 -12 39 -12 21 23 -20 39 -67 26 -49 80 25 75
29 -2 41 -8 43 -21z m2101 9 c17 -20 16 -95 0 -111 -8 -8 -26 -17 -41 -20 -60
-15 -103 80 -58 125 24 24 82 27 99 6z m126 4 c3 -5 -5 -12 -19 -16 -22 -5
-25 -12 -28 -57 -2 -40 -7 -53 -20 -55 -16 -3 -18 5 -18 67 l0 71 39 0 c22 0
43 -4 46 -10z m45 -60 c0 -56 -3 -70 -15 -70 -12 0 -15 14 -15 70 0 56 3 70
15 70 12 0 15 -14 15 -70z m288 47 c4 -18 2 -18 -58 -3 -3 0 -7 -3 -10 -9 -3
-5 11 -15 30 -21 18 -6 39 -21 44 -34 8 -18 6 -26 -13 -41 -28 -23 -49 -24
-79 -3 -28 19 -29 38 -2 30 11 -3 29 -9 40 -12 36 -11 23 24 -14 36 -37 12
-53 44 -34 67 17 21 92 13 96 -10z"/>
<path d="M1700 3284 c-116 -54 -183 -151 -183 -269 -1 -85 22 -143 80 -202
112 -114 284 -132 420 -44 95 61 135 134 136 246 1 57 -4 80 -26 121 -33 65
-109 134 -173 157 -76 27 -186 23 -254 -9z m270 -188 c0 -20 -166 -176 -188
-176 -26 0 -86 65 -79 84 9 22 20 20 47 -9 13 -14 28 -25 33 -25 5 0 43 32 83
70 71 67 104 85 104 56z"/>
<path d="M4510 3288 c-72 -28 -151 -106 -173 -172 -62 -183 47 -357 250 -398
103 -21 230 25 302 109 133 156 69 389 -129 464 -69 26 -177 25 -250 -3z m270
-191 c0 -8 -43 -53 -95 -101 l-95 -87 -45 36 c-44 36 -55 58 -36 69 5 4 23 -5
39 -19 16 -14 34 -25 38 -25 5 0 43 32 84 70 72 66 110 86 110 57z"/>
<path d="M7427 3293 c-62 -21 -141 -92 -174 -157 -54 -106 -29 -237 64 -329
153 -154 423 -111 524 85 34 64 32 175 -3 244 -36 69 -116 140 -181 159 -65
19 -169 18 -230 -2z m253 -198 c0 -14 -144 -160 -176 -178 -15 -9 -94 57 -94
79 0 24 18 24 48 -1 16 -14 34 -25 38 -25 5 1 42 32 83 70 73 69 101 84 101
55z"/>
<path d="M1497 2243 c-17 -17 -6 -34 20 -31 36 4 45 38 10 38 -13 0 -27 -3
-30 -7z"/>
<path d="M1870 2262 c0 -47 4 -52 38 -43 49 13 37 81 -14 81 -21 0 -24 -5 -24
-38z"/>
<path d="M4627 2294 c-11 -12 3 -24 29 -24 15 0 24 6 24 15 0 15 -40 21 -53 9z"/>
<path d="M3920 2006 c0 -31 3 -36 23 -36 33 0 49 15 45 41 -2 19 -10 25 -35
27 -32 3 -33 2 -33 -32z"/>
<path d="M7740 1981 c0 -6 4 -12 10 -16 13 -8 61 5 54 16 -7 12 -64 12 -64 0z"/>
<path d="M1725 1981 c-3 -5 0 -13 5 -16 16 -10 62 4 55 15 -8 13 -52 13 -60 1z"/>
<path d="M4174 1976 c-3 -8 -4 -25 -2 -38 2 -18 9 -23 33 -23 28 0 30 3 30 35
0 31 -3 35 -28 38 -17 2 -29 -2 -33 -12z"/>
<path d="M4347 1992 c-14 -3 -17 -12 -15 -40 3 -32 7 -37 31 -40 25 -3 27 -1
27 31 0 38 -15 56 -43 49z"/>
<path d="M4585 1929 c-8 -13 -6 -15 23 -23 18 -6 22 -3 22 13 0 23 -33 30 -45
10z"/>
<path d="M5180 1975 c0 -16 12 -18 47 -9 31 8 19 24 -18 24 -19 0 -29 -5 -29
-15z"/>
<path d="M7430 1951 c0 -39 1 -41 31 -41 29 0 30 2 27 38 -3 32 -7 37 -30 40
-27 3 -28 1 -28 -37z"/>
</g>
</svg>
